<svg xmlns="http://www.w3.org/2000/svg" viewBox="0 0 64 64">
  <defs>
    <linearGradient id="bg" x1="0" y1="0" x2="1" y2="1">
      <stop offset="0%" stop-color="#00363d"/>
      <stop offset="100%" stop-color="#22a49b"/>
    </linearGradient>
  </defs>
  <rect width="64" height="64" rx="16" fill="url(#bg)"/>
  <path d="M18 20h18.4c3.2 0 5.8 2.6 5.8 5.8 0 2.9-2.1 5.3-4.9 5.7H26v5.6h9.8c2.2 0 4 1.8 4 4s-1.8 4-4 4H26V48h-8z" fill="#f2f5f4"/>
  <path d="M47.8 18c-8 0-14.5 6.5-14.5 14.5S39.8 47 47.8 47c3.9 0 7.4-1.4 10.3-4.3l-4-4.4c-1.7 1.6-3.8 2.6-6.1 2.6-4.8 0-8.6-3.8-8.6-8.4s3.8-8.4 8.6-8.4c2.3 0 4.4 0.9 6.1 2.6l4-4.4C55.2 19.4 51.7 18 47.8 18z" fill="#f2f5f4"/>
  <circle cx="29" cy="45" r="3.4" fill="#22a49b"/>
</svg>
