<svg xmlns="http://www.w3.org/2000/svg" viewBox="0 0 64 64">
  <defs>
    <linearGradient id="bg" x1="0.1" y1="0" x2="0.95" y2="1">
      <stop offset="0%" stop-color="#063a44" />
      <stop offset="38%" stop-color="#0e6d63" />
      <stop offset="100%" stop-color="#24c3a9" />
    </linearGradient>
    <linearGradient id="leafGlow" x1="0.2" y1="0" x2="1" y2="1">
      <stop offset="0%" stop-color="#d1fff4" />
      <stop offset="100%" stop-color="#81f1de" />
    </linearGradient>
  </defs>

  <!-- background -->
  <rect width="128" height="128" rx="18" fill="url(#bg)" stroke="#ffffff" stroke-opacity=".32" stroke-width=".6" />
  <g transform="translate(-8 -9) scale(1.25)">

  <!-- outer circle + pulse -->
  <g>
    <circle cx="32" cy="32" r="22" fill="none" stroke="#d5fff4" stroke-opacity=".72" stroke-width="1.4" stroke-linecap="round" stroke-dasharray="52 18" />
    <circle cx="50" cy="20" r="2.6" fill="#ffffff" fill-opacity=".92" stroke="#064e52" stroke-opacity=".38" stroke-width=".5" />
  </g>

  <!-- CENTRAL DESIGN SCALED UP -->
    <path d="M33 14.4c6.2 0 11.2 4.7 11.2 10.6 0 4.5-3 8.4-7.5 9.9-1.3.4-2.1 1.6-2.1 2.9v1.9h-8.8v-1.9c0-1.3-.8-2.5-2.1-2.9-4.5-1.5-7.6-5.4-7.6-9.9 0-5.9 5-10.6 11.2-10.6 2.1 0 4.1.6 5.9 1.6 1.7-1 3.7-1.6 5.8-1.6z" fill="#28d1b2" fill-opacity=".86" />
    <path d="M24.7 18.6c-3.7 1.5-6.1 5-6.1 8.8 0 3.6 2.2 6.9 5.6 8.5 1.1.5 2.3.1 3-.8l4.1-5.1c.7-.9.7-2.2-.1-3.1l-3.5-4.3c-1.1-1.3-2.9-1.8-4.5-1z" fill="#0b675f" fill-opacity=".42" />
    <path d="M29.4 35.8h5.2c1.3 0 2.4 1 2.4 2.4V46c0 2-1.6 3.6-3.6 3.6h-2.8c-2 0-3.6-1.6-3.6-3.6v-7.8c0-1.3 1.1-2.4 2.4-2.4z" fill="#f2f5f4" fill-opacity=".94" />
    <path d="M32 19.2c2.6 0 4.8 1.9 4.8 4.2 0 1.8-1.1 3.3-2.8 3.9-.6.2-1 .7-1 1.3v1.4h-2.2v-1.4c0-.6-.4-1.1-1-1.3-1.6-.6-2.8-2.1-2.8-3.9 0-2.3 2.2-4.2 4.8-4.2z" fill="url(#leafGlow)" fill-opacity=".88" />

  <!-- calculator on the right -->
  <g transform="translate(2 -9)">
    <rect x="40.5" y="33.5" width="14" height="16.5" rx="2.4" fill="#102d34" fill-opacity=".85" stroke="#f2f5f4" stroke-opacity=".35" stroke-width=".6" />
    <rect x="42.4" y="35.5" width="10.2" height="5" rx="1.2" fill="#f2f5f4" fill-opacity=".88" />
    <rect x="43.9" y="42" width="2.6" height="2.6" rx=".6" fill="#7bf0d9" fill-opacity=".9" />
    <rect x="48.5" y="42" width="2.6" height="2.6" rx=".6" fill="#7bf0d9" fill-opacity=".9" />
    <rect x="43.9" y="45.4" width="2.6" height="2.6" rx=".6" fill="#7bf0d9" fill-opacity=".9" />
    <rect x="48.5" y="45.4" width="2.6" height="2.6" rx=".6" fill="#7bf0d9" fill-opacity=".9" />
  </g>

  <!-- F / C letters -->
    <g transform="translate(0 6) scale(1)">
  <path stroke="#f2f5f4" stroke-opacity=".8" stroke-width=".6" d="M16.8 32.4h10.6v4.6h-6.2v3.2h6.6v4.6h-6.6v6h-4.4z" fill="#012f36" />
  </g>
  <g transform="translate(4 6) scale(1)">
  <path stroke="#f2f5f4" stroke-opacity=".8" stroke-width=".6"  d="M37.2 30.2c-6.1 0-11 4.8-11 10.6S31 51.4 37.2 51.4c2.8 0 5.4-.9 7.4-2.6l-3.2-3.3c-1.1.9-2.4 1.4-3.9 1.4-3.3 0-6-2.6-6-5.8s2.7-5.8 6-5.8c1.5 0 2.9.5 3.9 1.4l3.2-3.3c-2-1.6-4.6-2.6-7.4-2.6z" fill="#012f36" />
  </g></g>

  <!-- extra pulse -->
  <circle cx="47.5" cy="15.5" r="2.8" fill="#e5fff5" fill-opacity=".94" />
</svg>